<svg width="500" height="350" viewBox="0 0 500 350" xmlns="http://www.w3.org/2000/svg">

    <!-- Background -->
    <!-- <rect width="100%" height="100%" fill="#f5f5f5"/> -->

    <!-- Outer Circle -->
    <circle cx="250" cy="130" r="80" fill="white" stroke="#c0392b" stroke-width="4"/>
    <!-- <circle cx="250" cy="130" r="68" fill="none" stroke="#e74c3c" stroke-width="2"/> -->

    <!-- House (Gold Roof) -->
    <polygon points="190,120 250,80 310,120" fill="#b08d57"/>
    <rect x="205" y="120" width="40" height="40" fill="#b08d57"/>

    <!-- House (Black) -->
    <polygon points="250,80 310,120 310,160 250,160" fill="#000000"/>
    <rect x="280" y="95" width="12" height="40" fill="#000"/>

    <!-- Target circles -->
    <!-- <circle cx="250" cy="130" r="35" fill="white" stroke="#e74c3c" stroke-width="6"/> -->
    <!-- <circle cx="250" cy="130" r="20" fill="#e74c3c"/> -->



    <!-- Magnifying Glass -->
    <circle cx="251" cy="130" r="37" fill="white" stroke="#e74c3c" stroke-width="6"/>
    <line x1="230" y1="165" x2="210" y2="200" stroke="#e74c3c" stroke-width="10" stroke-linecap="round"/>
    <!-- Location Pin -->
    <path d="M250 110
          C240 110, 235 118, 235 125
          C235 138, 250 150, 250 150
          C250 150, 265 138, 265 125
          C265 118, 260 110, 250 110 Z"
          fill="red"/>
    <circle cx="250" cy="124" r="8" fill="black"/>
    <!-- Text: CribSearch -->
    <text x="140" y="250" font-family="Arial, sans-serif" font-size="40" font-weight="bold" fill="#b08d57">
        Crib<tspan fill="#e74c3c">Search</tspan>
    </text>

    <!-- Tagline -->
    <text x="155" y="280" font-family="Arial, sans-serif" font-size="16" fill="#b08d57">
        Hunt Better, Live Better
    </text>

</svg>
